{
	"asset":{
		"version":"2.0",
		"generator":""
	},
	"scenes":[{
		"nodes":[0]
	}],
	"buffers":[{
		"uri":"data:application/octet-stream;base64,",
		"byteLength":5916
	}],
	"nodes":[{
		"name":"root",
		"children":[1,
		2]
	},
	{
		"name":"Walls",
		"translation":[-5.523281743080588e-8,
		1.2635794878005982,
		-4.038613796234131],
		"rotation":[0.0,
		0.0,
		0.7071067094802856,
		0.7071068286895752],
		"scale":[1.25,
		1.25,
		1.25],
		"children":[3]
	},
	{
		"name":"Camera",
		"translation":[-11.914855003356934,
		1.3832542896270753,
		-1.357473373413086],
		"rotation":[-0.4980449676513672,
		0.5019546151161194,
		-0.5002116560935974,
		-0.4997810423374176],
		"scale":[1.0,
		0.9999999403953552,
		0.9999999403953552],
		"children":[4]
	},
	{
		"name":"Mesh",
		"mesh":0
	},
	{
		"name":"Camera",
		"camera":0,
		"translation":[0.0,
		0.0,
		0.0],
		"rotation":[0.7071067690849304,
		0.0,
		0.0,
		-0.7071067690849304],
		"scale":[1.0,
		1.0,
		1.0]
	}],
	"meshes":[{
		"name":"Mesh",
		"primitives":[{
			"attributes":{
				"POSITION":1,
				"NORMAL":2,
				"TEXCOORD_0":3
			},
			"indices":0
		}]
	}],
	"cameras":[{
		"type":"perspective",
		"perspective":{
			"znear":0.10000000149011612,
			"zfar":100.0,
			"aspectRatio":0.77734375,
			"yfov":1.080838918685913
		}
	}],
	"accessors":[{
		"min":[0],
		"bufferView":0,
		"type":"SCALAR",
		"max":[173],
		"componentType":5123,
		"count":174,
		"byteOffset":0
	},
	{
		"min":[-1.0,
		-4.914282321929932,
		-0.7348916530609131],
		"bufferView":1,
		"type":"VEC3",
		"max":[3.8924572467803957,
		8.0095853805542,
		3.2598774433135988],
		"componentType":5126,
		"count":174,
		"byteOffset":0
	},
	{
		"min":[0.0,
		-0.013312569819390774,
		-0.010312597267329693],
		"bufferView":1,
		"type":"VEC3",
		"max":[1.0,
		1.0,
		1.0],
		"componentType":5126,
		"count":174,
		"byteOffset":12
	},
	{
		"min":[0.011386960744857788,
		0.37374675273895266],
		"bufferView":1,
		"type":"VEC2",
		"max":[0.9863607883453369,
		0.9991085529327393],
		"componentType":5126,
		"count":174,
		"byteOffset":24
	}],
	"bufferViews":[{
		"buffer":0,
		"target":34963,
		"byteOffset":0,
		"byteLength":348
	},
	{
		"buffer":0,
		"target":34962,
		"byteOffset":348,
		"byteLength":5568,
		"byteStride":32
	}]
}