{
	"asset":{
		"version":"2.0",
		"generator":"Maxon Cinema 4D 2025.1.3 (#200000219)"
	},
	"scenes":[{
		"nodes":[0,
		1]
	}],
	"accessors":[{
		"bufferView":0,
		"type":"SCALAR",
		"componentType":5123,
		"count":18,
		"byteOffset":0,
		"min":[0],
		"max":[17]
	},
	{
		"bufferView":1,
		"type":"VEC3",
		"componentType":5126,
		"count":18,
		"byteOffset":0,
		"min":[-1.593461036682129,
		-1.2280431985855103,
		-1.0000882148742676],
		"max":[1.6386737823486329,
		1.1783792972564698,
		3.053126573562622]
	},
	{
		"bufferView":1,
		"type":"VEC2",
		"componentType":5126,
		"count":18,
		"byteOffset":12,
		"min":[0.0032552112825214864,
		0.0032552110496908428],
		"max":[9.993498802185059,
		2.231468915939331]
	}],
	"nodes":[{
		"name":"Walls",
		"mesh":0,
		"translation":[0.07123993337154389,
		1.510548710823059,
		0.0],
		"rotation":[0.0,
		0.0,
		0.0,
		-1.0],
		"scale":[1.0,
		1.0,
		1.0]
	},
	{
		"name":"Camera",
		"camera":0,
		"translation":[-0.006676764693111181,
		1.029746651649475,
		5.640242576599121],
		"rotation":[-0.00686899246647954,
		-0.0017977061215788127,
		-0.000012348741620371584,
		0.99997478723526],
		"scale":[1.0,
		1.0,
		1.0]
	}],
	"meshes":[{
		"name":"Walls",
		"primitives":[{
			"attributes":{
				"POSITION":1,
				"TEXCOORD_0":2
			},
			"indices":0,
			"material":0
		}]
	}],
	"cameras":[{
		"type":"perspective",
		"perspective":{
			"znear":0.009999999776482582,
			"zfar":10000000000.0,
			"aspectRatio":1.3333333730697632,
			"yfov":0.7175413370132446
		}
	}],
	"bufferViews":[{
		"buffer":0,
		"byteOffset":0,
		"byteLength":36,
		"target":34963
	},
	{
		"buffer":0,
		"byteOffset":36,
		"byteLength":360,
		"target":34962,
		"byteStride":20
	}],
	"buffers":[{
		"uri":"data:application/octet-stream;base64,",
		"byteLength":396
	}],
	"materials":[{
		"pbrMetallicRoughness":{
			"baseColorFactor":[0.8,
			0.8,
			0.8,
			1.0],
			"metallicFactor":1.0,
			"roughnessFactor":1.0
		},
		"emissiveFactor":[0.0,
		0.0,
		0.0],
		"alphaMode":"OPAQUE",
		"doubleSided":false,
		"name":"Mat.1"
	}]
}